HIERARCHY
ROOT root
{
	OFFSET 0.000000 0.000000 0.000000
	CHANNELS 6 Xposition Yposition Zposition Zrotation Yrotation Xrotation
	JOINT lhip
	{
		OFFSET 0.058581 -0.082280 -0.017664
		CHANNELS 3 Zrotation Yrotation Xrotation
		JOINT lknee
		{
			OFFSET 0.043451 -0.386469 0.008037
			CHANNELS 3 Zrotation Yrotation Xrotation
			JOINT lankle
			{
				OFFSET -0.014790 -0.426874 -0.037428
				CHANNELS 3 Zrotation Yrotation Xrotation
				JOINT ltoe
				{
					OFFSET 0.041054 -0.060286 0.122042
					CHANNELS 3 Zrotation Yrotation Xrotation
					End Site
					{
						OFFSET 0.000000 0.000000 0.000000
					}
				}
			}
		}
	}
	JOINT rhip
	{
		OFFSET -0.060310 -0.090513 -0.013543
		CHANNELS 3 Zrotation Yrotation Xrotation
		JOINT rknee
		{
			OFFSET -0.043257 -0.383688 -0.004843
			CHANNELS 3 Zrotation Yrotation Xrotation
			JOINT rankle
			{
				OFFSET 0.019056 -0.420046 -0.034562
				CHANNELS 3 Zrotation Yrotation Xrotation
				JOINT rtoe
				{
					OFFSET -0.034840 -0.062106 0.130323
					CHANNELS 3 Zrotation Yrotation Xrotation
					End Site
					{
						OFFSET 0.000000 0.000000 0.000000
					}
				}
			}
		}
	}
	JOINT lowerback
	{
		OFFSET 0.004439 0.124404 -0.038385
		CHANNELS 3 Zrotation Yrotation Xrotation
		JOINT upperback
		{
			OFFSET 0.004488 0.137956 0.026820
			CHANNELS 3 Zrotation Yrotation Xrotation
			JOINT chest
			{
				OFFSET -0.002265 0.056032 0.002855
				CHANNELS 3 Zrotation Yrotation Xrotation
				JOINT lowerneck
				{
					OFFSET -0.013390 0.211636 -0.033468
					CHANNELS 3 Zrotation Yrotation Xrotation
					JOINT upperneck
					{
						OFFSET 0.010113 0.088937 0.050410
						CHANNELS 3 Zrotation Yrotation Xrotation
						End Site
						{
							OFFSET 0.000000 0.000000 0.000000
						}
					}
				}
				JOINT lclavicle
				{
					OFFSET 0.071702 0.114000 -0.018898
					CHANNELS 3 Zrotation Yrotation Xrotation
					JOINT lshoulder
					{
						OFFSET 0.122921 0.045205 -0.019046
						CHANNELS 3 Zrotation Yrotation Xrotation
						JOINT lelbow
						{
							OFFSET 0.255332 -0.015649 -0.022946
							CHANNELS 3 Zrotation Yrotation Xrotation
							JOINT lwrist
							{
								OFFSET 0.265709 0.012698 -0.007375
								CHANNELS 3 Zrotation Yrotation Xrotation
								End Site
								{
									OFFSET 0.000000 0.000000 0.000000
								}
							}
						}
					}
				}
				JOINT rclavicle
				{
					OFFSET -0.082954 0.112472 -0.023707
					CHANNELS 3 Zrotation Yrotation Xrotation
					JOINT rshoulder
					{
						OFFSET -0.113228 0.046853 -0.008472
						CHANNELS 3 Zrotation Yrotation Xrotation
						JOINT relbow
						{
							OFFSET -0.260127 -0.014369 -0.031269
							CHANNELS 3 Zrotation Yrotation Xrotation
							JOINT rwrist
							{
								OFFSET -0.269108 0.006794 -0.006027
								CHANNELS 3 Zrotation Yrotation Xrotation
								End Site
								{
									OFFSET 0.000000 0.000000 0.000000
								}
							}
						}
					}
				}
			}
		}
	}
}
MOTION
Frames: 17
Frame Time: 0.033333
-0.334479 -1.705258 0.933616 3.863544 0.156831 99.723196 6.906485 -1.624579 -43.732308 -4.000606 7.973741 49.703727 6.381406 11.371230 -27.942475 0.000000 -0.000000 0.000000 -1.057639 2.152829 -47.725855 -3.278489 -10.266650 57.947396 -0.228998 -11.490372 -29.834828 0.000000 -0.000000 0.000000 0.267234 -1.713549 45.235120 1.441149 -2.028616 -3.908739 2.467778 -2.032876 3.241045 -0.518789 4.700054 -11.990961 4.046574 2.802413 -13.881129 -28.397587 -10.995370 4.657767 -50.307661 -7.255968 8.396173 16.225216 -46.717226 -9.592278 7.997779 -4.076278 -16.882094 23.791889 14.551155 3.388151 52.426137 7.621983 12.847938 -23.577581 48.470984 -15.273623 2.200576 6.024873 -13.682540 
-0.334309 -1.705025 0.934033 3.846880 0.175636 99.767868 7.089484 -1.759745 -43.719141 -3.952022 8.225083 49.600717 6.389442 11.291337 -27.925843 0.000000 -0.000000 0.000000 -1.170674 2.262586 -47.513452 -3.867265 -10.782912 57.712491 -0.201790 -10.813343 -29.681829 0.000000 -0.000000 0.000000 0.329779 -1.638555 45.236328 1.486090 -2.082424 -3.904264 2.381755 -1.955347 3.152317 -0.642535 4.670299 -11.986087 4.084034 2.740040 -13.697783 -28.433774 -10.928611 4.746781 -50.239027 -7.142351 8.600521 16.665785 -47.181869 -9.556984 8.001626 -4.115709 -17.501179 23.879639 14.477644 3.442131 52.293856 7.420917 12.929048 -23.698121 48.594446 -14.678722 2.316228 5.970875 -14.460927 
-0.334093 -1.704886 0.934124 3.913962 0.181502 99.771686 7.052397 -1.757324 -43.725386 -3.953230 8.163035 49.578063 6.434504 11.287915 -27.916633 0.000000 -0.000000 0.000000 -1.211704 2.274870 -47.465367 -3.758709 -10.783947 57.627380 -0.170845 -10.975265 -29.660416 0.000000 -0.000000 0.000000 0.353124 -1.668511 45.245686 1.455203 -2.039208 -3.916042 2.357439 -1.941077 3.157538 -0.675658 4.632456 -12.008280 4.051403 2.727743 -13.620906 -28.430777 -10.797338 4.748715 -50.214844 -7.135576 8.590500 16.881833 -47.619530 -9.676534 8.010811 -4.164883 -17.601231 23.879648 14.423685 3.446243 52.302873 7.362450 12.915547 -23.732842 48.572200 -14.703663 2.346438 5.971440 -14.333514 
-0.333852 -1.704749 0.934038 3.972735 0.165933 99.765683 7.005131 -1.752870 -43.736728 -3.975955 8.125374 49.564301 6.471436 11.279314 -27.915069 0.000000 -0.000000 0.000000 -1.224046 2.221857 -47.473332 -3.736011 -10.751260 57.649196 -0.153033 -11.034351 -29.698459 0.000000 -0.000000 0.000000 0.342691 -1.654272 45.252290 1.433130 -2.003363 -3.918346 2.333660 -1.925033 3.194842 -0.693965 4.644666 -12.079268 4.006230 2.670281 -13.513311 -28.431068 -10.645166 4.707041 -50.181628 -7.146623 8.576723 17.192682 -48.043608 -9.887413 8.043382 -4.170520 -17.750150 23.968698 14.359794 3.433103 52.278396 7.403060 12.893557 -23.791219 48.406969 -14.735139 2.414433 5.930753 -14.209500 
-0.333666 -1.704651 0.933962 3.993492 0.160001 99.748290 6.964397 -1.749767 -43.738023 -3.974532 8.090117 49.573094 6.485073 11.283525 -27.924781 0.000000 -0.000000 0.000000 -1.214436 2.224263 -47.475126 -3.777291 -10.713303 57.681105 -0.145244 -11.056660 -29.718021 0.000000 -0.000000 0.000000 0.339848 -1.645667 45.281794 1.409700 -1.973635 -3.915606 2.320747 -1.891145 3.201338 -0.696979 4.623039 -12.101381 4.002295 2.617288 -13.462191 -28.442041 -10.604504 4.693936 -50.176556 -7.169161 8.562151 17.368076 -48.196083 -10.041396 8.088275 -4.174317 -17.819061 24.003355 14.394578 3.455511 52.295877 7.404967 12.858124 -23.865279 48.266943 -14.878737 2.377085 5.937148 -14.210122 
-0.333311 -1.704579 0.933898 4.022196 0.120572 99.719562 6.895740 -1.834761 -43.713531 -3.924788 8.095510 49.563015 6.479574 11.299541 -27.947316 0.000000 -0.000000 0.000000 -1.233051 2.286399 -47.489442 -3.888858 -10.636151 57.766124 -0.053571 -11.103476 -29.779644 0.000000 -0.000000 0.000000 0.323765 -1.615405 45.356687 1.417368 -1.930576 -3.925721 2.311964 -1.881309 3.243155 -0.736691 4.649815 -12.237649 3.928532 2.534620 -13.389828 -28.521514 -10.530728 4.629792 -50.149073 -7.243249 8.592626 17.523810 -48.309935 -10.172399 8.144723 -4.206764 -17.815388 24.229407 14.312917 3.399643 52.150697 7.474995 12.899898 -23.973265 48.133995 -15.000461 2.385978 5.881087 -14.207387 
-0.332927 -1.704546 0.933978 4.059754 0.065307 99.691253 6.805197 -1.975354 -43.678535 -3.856990 8.073019 49.530826 6.485957 11.343649 -27.944533 0.000000 -0.000000 0.000000 -1.274470 2.323689 -47.462920 -3.959417 -10.567548 57.780458 -0.031338 -11.169830 -29.817245 0.000000 -0.000000 0.000000 0.330137 -1.582714 45.455652 1.398111 -1.917048 -3.942370 2.306257 -1.877812 3.253125 -0.754430 4.669621 -12.298728 3.888251 2.520781 -13.362636 -28.553710 -10.520183 4.600033 -50.183966 -7.265872 8.640523 17.693248 -48.404369 -10.235180 8.193540 -4.227274 -17.803838 24.338547 14.350732 3.393677 52.123874 7.524301 12.911496 -24.018031 47.922487 -15.114021 2.346189 5.871626 -14.212229 
-0.332546 -1.704522 0.934164 4.113976 0.025899 99.672046 6.721886 -2.119808 -43.651292 -3.792258 8.030014 49.499294 6.507545 11.390221 -27.924058 0.000000 -0.000000 0.000000 -1.323155 2.337773 -47.424244 -3.986668 -10.527818 57.757238 -0.005317 -11.225566 -29.804472 0.000000 -0.000000 0.000000 0.354574 -1.560813 45.536952 1.390877 -1.913457 -3.940074 2.309642 -1.870191 3.245216 -0.760329 4.677705 -12.325554 3.864774 2.515195 -13.332557 -28.578489 -10.541048 4.596207 -50.260775 -7.288654 8.684481 17.814842 -48.429166 -10.303311 8.186005 -4.247572 -17.796016 24.391040 14.402675 3.408679 52.151797 7.555764 12.909349 -24.085695 47.742570 -15.197974 2.421924 5.838527 -14.153264 
-0.332246 -1.704600 0.934374 4.159176 0.033427 99.666894 6.680795 -2.193294 -43.626497 -3.745750 7.977159 49.469427 6.516317 11.398289 -27.910065 0.000000 -0.000000 0.000000 -1.330124 2.325375 -47.375619 -3.998180 -10.528917 57.709566 0.016815 -11.227214 -29.798195 0.000000 -0.000000 0.000000 0.400724 -1.543731 45.604335 1.387879 -1.888882 -3.949310 2.317275 -1.843015 3.244555 -0.743748 4.679383 -12.336880 3.863236 2.496850 -13.336033 -28.608705 -10.529354 4.568216 -50.368180 -7.327088 8.698715 17.812293 -48.413127 -10.273800 8.115799 -4.235920 -17.748015 24.408198 14.408413 3.416469 52.230258 7.560120 12.897400 -24.148182 47.650695 -15.270859 2.434943 5.824196 -14.072216 
-0.331920 -1.704839 0.934564 4.179121 0.057927 99.657015 6.677388 -2.225489 -43.581813 -3.734313 7.959525 49.433462 6.521937 11.394082 -27.917898 0.000000 -0.000000 0.000000 -1.370033 2.312976 -47.322677 -3.978933 -10.602210 57.678696 0.036533 -11.180530 -29.767522 0.000000 -0.000000 0.000000 0.420769 -1.514352 45.650220 1.388975 -1.862025 -3.924949 2.326683 -1.813720 3.245647 -0.684926 4.730365 -12.375714 3.883161 2.488476 -13.341428 -28.656879 -10.478596 4.540350 -50.498877 -7.329931 8.730856 17.847466 -48.434544 -10.292453 8.129585 -4.275983 -17.674360 24.485003 14.392558 3.429374 52.253769 7.537682 12.917259 -24.135897 47.663326 -15.258621 2.386445 5.869468 -14.033453 
-0.331651 -1.705125 0.934650 4.154841 0.068920 99.647099 6.688760 -2.211057 -43.540748 -3.751726 7.997527 49.430748 6.520104 11.376348 -27.939838 0.000000 -0.000000 0.000000 -1.367794 2.272360 -47.288107 -3.972792 -10.607178 57.670928 0.041812 -11.124139 -29.762284 0.000000 -0.000000 0.000000 0.406572 -1.494588 45.677003 1.377520 -1.843018 -3.902651 2.322099 -1.797490 3.236518 -0.640512 4.749455 -12.403864 3.899522 2.496986 -13.325205 -28.709535 -10.410130 4.528762 -50.573504 -7.278081 8.744447 17.856023 -48.494729 -10.278099 8.113556 -4.292664 -17.675778 24.540586 14.358864 3.440266 52.309193 7.518766 12.942695 -24.159020 47.721758 -15.229002 2.446330 5.859143 -13.985935 
-0.331379 -1.705445 0.934785 4.122055 0.082462 99.624326 6.708880 -2.207287 -43.470660 -3.762971 8.046800 49.409590 6.502259 11.361393 -27.969474 0.000000 -0.000000 0.000000 -1.331561 2.248599 -47.229419 -3.995710 -10.562983 57.655778 0.052167 -11.074218 -29.762019 0.000000 -0.000000 0.000000 0.381461 -1.492118 45.715876 1.371135 -1.846721 -3.880433 2.314150 -1.792026 3.247224 -0.618292 4.745273 -12.428860 3.874949 2.501277 -13.336792 -28.762899 -10.336253 4.510549 -50.630648 -7.219434 8.748431 17.824447 -48.507587 -10.243646 8.100598 -4.294064 -17.678900 24.578058 14.345338 3.437869 52.386534 7.525134 12.983352 -24.159693 47.761195 -15.235008 2.452643 5.860056 -13.973462 
-0.331042 -1.705852 0.935001 4.090937 0.084793 99.611469 6.702506 -2.229048 -43.399729 -3.748399 8.082974 49.371221 6.484679 11.362367 -27.992285 0.000000 -0.000000 0.000000 -1.317459 2.276794 -47.165828 -4.030114 -10.515802 57.618683 0.059411 -11.075939 -29.761431 0.000000 -0.000000 0.000000 0.359407 -1.501196 45.733189 1.367985 -1.870936 -3.824519 2.288771 -1.799293 3.261229 -0.593620 4.768013 -12.476037 3.833330 2.502323 -13.369270 -28.834019 -10.268433 4.484273 -50.642554 -7.165610 8.767163 17.778614 -48.477791 -10.185049 8.046584 -4.307770 -17.645442 24.640309 14.324160 3.396217 52.422460 7.532000 13.064170 -24.135314 47.818414 -15.201671 2.426166 5.895665 -14.005767 
-0.330649 -1.706242 0.935314 4.072140 0.076161 99.602541 6.657641 -2.279660 -43.323766 -3.712621 8.077934 49.315509 6.471256 11.384787 -28.003028 0.000000 -0.000000 0.000000 -1.343655 2.352162 -47.102620 -4.084184 -10.490075 57.585194 0.094648 -11.089989 -29.735872 0.000000 -0.000000 0.000000 0.346952 -1.532385 45.795586 1.351387 -1.890160 -3.809960 2.262000 -1.810139 3.271644 -0.594630 4.806760 -12.542719 3.793683 2.518998 -13.389252 -28.902228 -10.212219 4.458939 -50.666099 -7.125633 8.764159 17.751351 -48.417412 -10.152237 8.006991 -4.333809 -17.564487 24.679598 14.269920 3.335071 52.467867 7.508370 13.142997 -24.118820 47.938473 -15.134687 2.426414 5.912477 -14.020360 
-0.330238 -1.706730 0.935612 4.053836 0.076257 99.596696 6.604446 -2.310088 -43.246876 -3.687603 8.042352 49.258672 6.474750 11.414814 -28.011570 0.000000 -0.000000 0.000000 -1.409369 2.447978 -47.010920 -4.099141 -10.533004 57.510681 0.101533 -11.120265 -29.716322 0.000000 -0.000000 0.000000 0.354697 -1.581451 45.864881 1.323038 -1.895928 -3.807611 2.225284 -1.800009 3.271781 -0.615467 4.823950 -12.581317 3.775314 2.526710 -13.396201 -28.966214 -10.184183 4.464648 -50.695384 -7.090748 8.743956 17.790292 -48.396683 -10.179259 7.969997 -4.326021 -17.556598 24.707011 14.228387 3.335576 52.511162 7.442578 13.188979 -24.188341 48.116538 -15.139173 2.426608 5.930515 -14.051463 
-0.329834 -1.707106 0.935791 3.987495 0.085170 99.609780 6.594064 -2.275803 -43.208796 -3.691754 8.072523 49.239910 6.472069 11.405113 -28.022577 0.000000 -0.000000 0.000000 -1.401315 2.472179 -46.970744 -4.099374 -10.492487 57.450437 0.082965 -11.113868 -29.713154 0.000000 -0.000000 0.000000 0.358393 -1.605518 45.901163 1.287919 -1.887579 -3.796646 2.183052 -1.781703 3.251347 -0.642137 4.833214 -12.586860 3.767530 2.539410 -13.346438 -29.047552 -10.165742 4.472809 -50.711390 -7.052397 8.730098 17.851990 -48.360506 -10.252934 7.975431 -4.316604 -17.543023 24.751371 14.204850 3.365748 52.514986 7.364435 13.218071 -24.227665 48.255949 -15.107514 2.436933 5.940623 -14.066143 
-0.329402 -1.707600 0.935926 3.894543 0.107044 99.620426 6.606094 -2.199152 -43.153864 -3.720821 8.127689 49.216085 6.464748 11.383562 -28.050824 0.000000 -0.000000 0.000000 -1.357806 2.458403 -46.936343 -4.087724 -10.420449 57.415481 0.082073 -11.070646 -29.707651 0.000000 -0.000000 0.000000 0.348044 -1.628144 45.925108 1.255834 -1.873877 -3.772962 2.153814 -1.762826 3.227905 -0.682317 4.825774 -12.566796 3.755084 2.555106 -13.311391 -29.115649 -10.137580 4.491495 -50.749571 -7.017138 8.711922 17.969873 -48.370570 -10.354684 8.000976 -4.302293 -17.557120 24.779162 14.209030 3.405756 52.512366 7.330377 13.223805 -24.192138 48.292864 -15.047371 2.472191 5.952180 -14.037381 
